<svg width="1600" height="1000" viewBox="0 0 1600 1000" fill="none" xmlns="http://www.w3.org/2000/svg" role="img" aria-labelledby="t d">
  <title id="t">Lucarne live match center asset</title><desc id="d">Premium live match center visual with scores, pulse state and news rail.</desc>
  <defs><linearGradient id="bg" x1="0" y1="0" x2="1600" y2="1000"><stop stop-color="#07050d"/><stop offset=".45" stop-color="#07110d"/><stop offset="1" stop-color="#081725"/></linearGradient><linearGradient id="v" x1="150" y1="90" x2="1300" y2="850"><stop stop-color="#baa8ff"/><stop offset=".5" stop-color="#7c5cff"/><stop offset="1" stop-color="#4932a6"/></linearGradient><linearGradient id="g" x1="250" y1="120" x2="1400" y2="880"><stop stop-color="#86f6b5"/><stop offset=".5" stop-color="#22d982"/><stop offset="1" stop-color="#0b8f5c"/></linearGradient><filter id="blur"><feGaussianBlur stdDeviation="22"/></filter></defs>
  <rect width="1600" height="1000" rx="56" fill="url(#bg)"/><g filter="url(#blur)" opacity=".55"><circle cx="1120" cy="180" r="150" fill="#7c5cff"/><circle cx="420" cy="760" r="190" fill="#22d982"/></g><text x="96" y="132" fill="#f8fafc" font-family="Inter,Arial" font-size="76" font-weight="850">Live Match Center</text><text x="98" y="188" fill="#b8c3d2" font-family="Inter,Arial" font-size="28" font-weight="650">Scores, today's results and news in a broadcast-grade surface.</text>
  <g transform="translate(96 270)"><rect width="742" height="500" rx="32" fill="#fff" fill-opacity=".06" stroke="#fff" stroke-opacity=".16"/><rect x="45" y="48" width="652" height="190" rx="24" fill="#7c5cff" fill-opacity=".12" stroke="#7c5cff" stroke-opacity=".42"/><text x="78" y="98" fill="#d8d0ff" font-family="Inter,Arial" font-size="22" font-weight="850">LIVE NOW</text><text x="78" y="172" fill="#fff" font-family="Inter,Arial" font-size="56" font-weight="900">CAN  2 - 1  SUI</text><path d="M78 208h220" stroke="url(#g)" stroke-width="11" stroke-linecap="round"/><rect x="45" y="278" width="652" height="72" rx="16" fill="#fff" fill-opacity=".045"/><rect x="45" y="370" width="652" height="72" rx="16" fill="#fff" fill-opacity=".045"/><path d="M78 314h182M78 406h230M520 314h110M520 406h110" stroke="#fff" stroke-opacity=".35" stroke-width="10" stroke-linecap="round"/></g>
  <g transform="translate(900 270)"><rect width="604" height="500" rx="32" fill="#fff" fill-opacity=".06" stroke="#fff" stroke-opacity=".16"/><text x="42" y="68" fill="#f8fafc" font-family="Inter,Arial" font-size="34" font-weight="850">Hermes feed</text><rect x="42" y="102" width="520" height="92" rx="18" fill="#22d982" fill-opacity=".08" stroke="#22d982" stroke-opacity=".26"/><rect x="42" y="220" width="520" height="92" rx="18" fill="#f5c447" fill-opacity=".08" stroke="#f5c447" stroke-opacity=".26"/><rect x="42" y="338" width="520" height="92" rx="18" fill="#7c5cff" fill-opacity=".08" stroke="#7c5cff" stroke-opacity=".26"/><path d="M78 138h330M78 166h236M78 256h390M78 284h200M78 374h345M78 402h255" stroke="#fff" stroke-opacity=".32" stroke-width="9" stroke-linecap="round"/><circle cx="515" cy="148" r="13" fill="url(#g)"/><circle cx="515" cy="266" r="13" fill="#f5c447"/><circle cx="515" cy="384" r="13" fill="url(#v)"/></g>
</svg>
