<svg width="1600" height="1000" viewBox="0 0 1600 1000" fill="none" xmlns="http://www.w3.org/2000/svg" role="img" aria-labelledby="t d">
  <title id="t">Lucarne mobile quick bet asset</title><desc id="d">Premium mobile quick bet visual with phone screen, floating action button and selected match slip.</desc>
  <defs><linearGradient id="bg" x1="0" y1="0" x2="1600" y2="1000"><stop stop-color="#07110d"/><stop offset=".5" stop-color="#081725"/><stop offset="1" stop-color="#07050d"/></linearGradient><linearGradient id="g" x1="220" y1="100" x2="1320" y2="900"><stop stop-color="#86f6b5"/><stop offset=".5" stop-color="#22d982"/><stop offset="1" stop-color="#0b8f5c"/></linearGradient><linearGradient id="y" x1="280" y1="100" x2="1400" y2="900"><stop stop-color="#fff4b0"/><stop offset=".52" stop-color="#f5c447"/><stop offset="1" stop-color="#9a6710"/></linearGradient></defs>
  <rect width="1600" height="1000" rx="56" fill="url(#bg)"/><path d="M0 710c420-140 780-126 1600 0v290H0V710Z" fill="#22d982" fill-opacity=".05"/><text x="96" y="132" fill="#f8fafc" font-family="Inter,Arial" font-size="76" font-weight="850">Mobile Quick Bet</text><text x="98" y="188" fill="#b8c3d2" font-family="Inter,Arial" font-size="28" font-weight="650">A fast mobile slip for the next open match, always one tap away.</text>
  <g transform="translate(180 248)"><rect width="360" height="610" rx="58" fill="#fff" fill-opacity=".08" stroke="#fff" stroke-opacity=".22"/><rect x="28" y="42" width="304" height="522" rx="40" fill="#030706" fill-opacity=".78" stroke="#fff" stroke-opacity=".1"/><rect x="92" y="62" width="176" height="8" rx="4" fill="#fff" fill-opacity=".25"/><text x="68" y="132" fill="#f5c447" font-family="Inter,Arial" font-size="18" font-weight="850">NEXT MATCH</text><text x="68" y="192" fill="#fff" font-family="Inter,Arial" font-size="36" font-weight="900">CAN</text><text x="226" y="192" fill="#fff" font-family="Inter,Arial" font-size="36" font-weight="900">BIH</text><text x="166" y="192" fill="#758094" font-family="Inter,Arial" font-size="22" font-weight="850">VS</text><rect x="64" y="246" width="232" height="70" rx="18" fill="#22d982" fill-opacity=".12" stroke="#22d982" stroke-opacity=".35"/><rect x="64" y="336" width="232" height="70" rx="18" fill="#fff" fill-opacity=".045"/><rect x="206" y="486" width="88" height="88" rx="44" fill="#22d982"/><path d="M232 530h36M250 512v36" stroke="#07110d" stroke-width="9" stroke-linecap="round"/></g>
  <g transform="translate(660 310)"><rect width="760" height="430" rx="34" fill="#fff" fill-opacity=".07" stroke="#fff" stroke-opacity=".2"/><text x="48" y="72" fill="#fff" font-family="Inter,Arial" font-size="38" font-weight="850">Quick slip</text><rect x="48" y="118" width="664" height="92" rx="20" fill="#22d982" fill-opacity=".1" stroke="#22d982" stroke-opacity=".3"/><path d="M90 164h180M324 164h150M570 164h78" stroke="#fff" stroke-opacity=".35" stroke-width="11" stroke-linecap="round"/><rect x="48" y="252" width="310" height="110" rx="22" fill="#f5c447" fill-opacity=".09" stroke="#f5c447" stroke-opacity=".3"/><text x="82" y="318" fill="#f5c447" font-family="Inter,Arial" font-size="26" font-weight="900">LOCKS IN 1H</text><rect x="402" y="252" width="310" height="110" rx="22" fill="#22d982" fill-opacity=".1" stroke="#22d982" stroke-opacity=".32"/><text x="436" y="318" fill="#22d982" font-family="Inter,Arial" font-size="26" font-weight="900">PLACE PICK</text></g>
</svg>
