<svg width="1600" height="1000" viewBox="0 0 1600 1000" fill="none" xmlns="http://www.w3.org/2000/svg" role="img" aria-labelledby="t d">
  <title id="t">Lucarne admin operations panel asset</title><desc id="d">Premium admin operations visual for users, payments, economy, players and data controls.</desc>
  <defs><radialGradient id="bg" cx="22%" cy="0%" r="90%"><stop stop-color="#122b3c"/><stop offset=".52" stop-color="#07110d"/><stop offset="1" stop-color="#030405"/></radialGradient><linearGradient id="g" x1="170" y1="120" x2="1340" y2="850"><stop stop-color="#86f6b5"/><stop offset=".5" stop-color="#22d982"/><stop offset="1" stop-color="#0b8f5c"/></linearGradient><linearGradient id="y" x1="260" y1="120" x2="1380" y2="900"><stop stop-color="#fff4b0"/><stop offset=".5" stop-color="#f5c447"/><stop offset="1" stop-color="#9a6710"/></linearGradient></defs>
  <rect width="1600" height="1000" rx="56" fill="url(#bg)"/><text x="96" y="132" fill="#f8fafc" font-family="Inter,Arial" font-size="76" font-weight="850">Admin Ops Panel</text><text x="98" y="188" fill="#b8c3d2" font-family="Inter,Arial" font-size="28" font-weight="650">A restrained command surface for payments, players and economy settings.</text>
  <g transform="translate(120 260)"><rect width="300" height="560" rx="30" fill="#fff" fill-opacity=".055" stroke="#fff" stroke-opacity=".14"/><rect x="36" y="46" width="228" height="58" rx="14" fill="#22d982" fill-opacity=".12" stroke="#22d982" stroke-opacity=".32"/><rect x="36" y="132" width="228" height="58" rx="14" fill="#fff" fill-opacity=".04"/><rect x="36" y="218" width="228" height="58" rx="14" fill="#fff" fill-opacity=".04"/><rect x="36" y="304" width="228" height="58" rx="14" fill="#f5c447" fill-opacity=".08" stroke="#f5c447" stroke-opacity=".25"/><rect x="36" y="390" width="228" height="58" rx="14" fill="#fff" fill-opacity=".04"/><path d="M74 75h128M74 161h116M74 247h142M74 333h120M74 419h138" stroke="#fff" stroke-opacity=".34" stroke-width="8" stroke-linecap="round"/></g>
  <g transform="translate(500 222)"><rect width="950" height="620" rx="34" fill="#fff" fill-opacity=".07" stroke="#fff" stroke-opacity=".2"/><rect x="50" y="56" width="850" height="116" rx="22" fill="#22d982" fill-opacity=".08" stroke="#22d982" stroke-opacity=".25"/><text x="88" y="126" fill="#fff" font-family="Inter,Arial" font-size="38" font-weight="850">Operational health</text><circle cx="820" cy="114" r="24" fill="#22d982" fill-opacity=".18" stroke="url(#g)" stroke-width="6"/><g transform="translate(50 222)"><rect width="260" height="130" rx="22" fill="#f5c447" fill-opacity=".09" stroke="#f5c447" stroke-opacity=".28"/><rect x="294" width="260" height="130" rx="22" fill="#22d982" fill-opacity=".09" stroke="#22d982" stroke-opacity=".28"/><rect x="588" width="260" height="130" rx="22" fill="#7c5cff" fill-opacity=".09" stroke="#7c5cff" stroke-opacity=".28"/><text x="32" y="58" fill="#f5c447" font-family="Inter,Arial" font-size="22" font-weight="850">PAYMENTS</text><text x="326" y="58" fill="#22d982" font-family="Inter,Arial" font-size="22" font-weight="850">PLAYERS</text><text x="620" y="58" fill="#9d86ff" font-family="Inter,Arial" font-size="22" font-weight="850">ECONOMY</text><path d="M32 92h140M326 92h120M620 92h150" stroke="#fff" stroke-opacity=".34" stroke-width="10" stroke-linecap="round"/></g><path d="M82 430h760M82 486h600M82 542h700" stroke="#fff" stroke-opacity=".13" stroke-width="24" stroke-linecap="round"/><path d="M82 430h260M82 486h194M82 542h330" stroke="url(#g)" stroke-width="8" stroke-linecap="round"/></g>
</svg>
