<svg width="1600" height="1000" viewBox="0 0 1600 1000" fill="none" xmlns="http://www.w3.org/2000/svg" role="img" aria-labelledby="t d">
  <title id="t">Lucarne wallet prize pool asset</title><desc id="d">Premium wallet and prize pool visual for balance, buy-in and projected payouts.</desc>
  <defs><linearGradient id="bg" x1="0" y1="0" x2="1600" y2="1000"><stop stop-color="#07110d"/><stop offset=".54" stop-color="#081421"/><stop offset="1" stop-color="#09060d"/></linearGradient><linearGradient id="g" x1="170" y1="110" x2="1340" y2="850"><stop stop-color="#86f6b5"/><stop offset=".5" stop-color="#22d982"/><stop offset="1" stop-color="#0b8f5c"/></linearGradient><linearGradient id="y" x1="250" y1="110" x2="1400" y2="900"><stop stop-color="#fff4b0"/><stop offset=".5" stop-color="#f5c447"/><stop offset="1" stop-color="#9a6710"/></linearGradient></defs>
  <rect width="1600" height="1000" rx="56" fill="url(#bg)"/><path d="M0 700c385-120 828-118 1600 0v300H0V700Z" fill="#22d982" fill-opacity=".055"/><text x="96" y="132" fill="#f8fafc" font-family="Inter,Arial" font-size="76" font-weight="850">Wallet Prize Pool</text><text x="98" y="188" fill="#b8c3d2" font-family="Inter,Arial" font-size="28" font-weight="650">Balance, buy-in state, projected pot and payout tiers in one finance surface.</text>
  <g transform="translate(112 284)"><rect width="500" height="430" rx="34" fill="#fff" fill-opacity=".06" stroke="#fff" stroke-opacity=".16"/><text x="42" y="68" fill="#f5c447" font-family="Inter,Arial" font-size="20" font-weight="850" letter-spacing="3">BALANCE</text><text x="42" y="154" fill="#fff" font-family="Inter,Arial" font-size="76" font-weight="900">1,000</text><text x="42" y="196" fill="#b8c3d2" font-family="Inter,Arial" font-size="28" font-weight="700">tokens available</text><rect x="42" y="256" width="390" height="86" rx="22" fill="#22d982" fill-opacity=".1" stroke="#22d982" stroke-opacity=".32"/><path d="M80 300h230" stroke="url(#g)" stroke-width="12" stroke-linecap="round"/></g>
  <g transform="translate(690 230)"><rect width="820" height="540" rx="34" fill="#fff" fill-opacity=".07" stroke="#fff" stroke-opacity=".2"/><text x="52" y="76" fill="#fff" font-family="Inter,Arial" font-size="38" font-weight="850">Projected payouts</text><circle cx="680" cy="118" r="64" fill="#f5c447" fill-opacity=".1" stroke="url(#y)" stroke-width="8"/><path d="M680 86l15 30 33 5-24 23 6 33-30-16-30 16 6-33-24-23 33-5 15-30Z" fill="url(#y)"/><g font-family="Inter,Arial" font-size="30" font-weight="850"><rect x="52" y="162" width="480" height="78" rx="18" fill="#f5c447" fill-opacity=".1" stroke="#f5c447" stroke-opacity=".32"/><text x="92" y="213" fill="#fff">1st place</text><text x="410" y="213" fill="#f5c447">55%</text><rect x="52" y="270" width="480" height="78" rx="18" fill="#22d982" fill-opacity=".09" stroke="#22d982" stroke-opacity=".28"/><text x="92" y="321" fill="#fff">2nd place</text><text x="410" y="321" fill="#22d982">30%</text><rect x="52" y="378" width="480" height="78" rx="18" fill="#7c5cff" fill-opacity=".08" stroke="#7c5cff" stroke-opacity=".26"/><text x="92" y="429" fill="#fff">3rd place</text><text x="410" y="429" fill="#9d86ff">15%</text></g></g>
</svg>
