<svg width="256" height="256" viewBox="0 0 256 256" fill="none" xmlns="http://www.w3.org/2000/svg" role="img" aria-labelledby="title desc">
  <title id="title">Stadium beam icon</title>
  <desc id="desc">Premium stadium floodlight icon for venue and night match surfaces.</desc>
  <defs>
    <linearGradient id="green" x1="43" y1="48" x2="207" y2="215">
      <stop stop-color="#7AF4B1"/>
      <stop offset=".55" stop-color="#22D982"/>
      <stop offset="1" stop-color="#0B8F5C"/>
    </linearGradient>
    <linearGradient id="gold" x1="55" y1="36" x2="204" y2="216">
      <stop stop-color="#FFF4B0"/>
      <stop offset=".5" stop-color="#F5C447"/>
      <stop offset="1" stop-color="#9A6710"/>
    </linearGradient>
  </defs>
  <rect width="256" height="256" rx="54" fill="#07110D"/>
  <path d="M36 190c47-43 137-43 184 0" stroke="url(#green)" stroke-width="9" stroke-linecap="round"/>
  <path d="M56 164c36-27 108-27 144 0" stroke="#FFFFFF" stroke-opacity=".26" stroke-width="6" stroke-linecap="round"/>
  <rect x="56" y="58" width="49" height="38" rx="10" fill="#F5C447" fill-opacity=".12" stroke="url(#gold)" stroke-width="5"/>
  <rect x="151" y="58" width="49" height="38" rx="10" fill="#F5C447" fill-opacity=".12" stroke="url(#gold)" stroke-width="5"/>
  <path d="M80 96 51 151M176 96l29 55M69 58h23M164 58h23M80 38v20M176 38v20" stroke="url(#gold)" stroke-width="7" stroke-linecap="round"/>
  <path d="M65 122h126M58 142h140" stroke="#22D982" stroke-width="5" stroke-linecap="round" stroke-opacity=".22"/>
</svg>
